<?xml version="1.0" encoding="UTF-8" standalone="no"?>
<!-- Created with Inkscape (http://www.inkscape.org/) -->

<svg
   width="190"
   height="190"
   viewBox="0 0 50.270832 50.270835"
   version="1.1"
   id="svg5"
   inkscape:version="1.1 (1:1.1+202105261517+ce6663b3b7)"
   sodipodi:docname="close_dark.svg"
   xmlns:inkscape="http://www.inkscape.org/namespaces/inkscape"
   xmlns:sodipodi="http://sodipodi.sourceforge.net/DTD/sodipodi-0.dtd"
   xmlns="http://www.w3.org/2000/svg"
   xmlns:svg="http://www.w3.org/2000/svg">
  <sodipodi:namedview
     id="namedview7"
     pagecolor="#505050"
     bordercolor="#eeeeee"
     borderopacity="1"
     inkscape:pageshadow="0"
     inkscape:pageopacity="0"
     inkscape:pagecheckerboard="0"
     inkscape:document-units="mm"
     showgrid="true"
     units="px"
     width="793.70081px"
     inkscape:zoom="2.8284271"
     inkscape:cx="62.57895"
     inkscape:cy="103.9447"
     inkscape:window-width="1914"
     inkscape:window-height="1011"
     inkscape:window-x="0"
     inkscape:window-y="35"
     inkscape:window-maximized="1"
     inkscape:current-layer="layer1"
     inkscape:snap-grids="true">
    <inkscape:grid
       type="xygrid"
       id="grid1510"
       empspacing="10"
       originx="2.3547917"
       originy="2.3547917" />
  </sodipodi:namedview>
  <defs
     id="defs2" />
  <g
     inkscape:label="Layer 1"
     inkscape:groupmode="layer"
     id="layer1">
    <rect
       style="fill:#eb03d4;fill-opacity:1;stroke:#eb03d4;stroke-width:0.399515;stroke-linecap:round;stroke-linejoin:miter;stroke-opacity:1"
       id="rect870"
       width="0.26458392"
       height="0"
       x="2.2489583"
       y="2.5135417" />
    <rect
       style="fill:#eb03d4;fill-opacity:1;stroke:#eb03d4;stroke-width:0.564999;stroke-linecap:round;stroke-linejoin:miter;stroke-opacity:1"
       id="rect1632"
       width="0"
       height="0.26458314"
       x="2.0902083"
       y="2.3547919" />
    <path
       style="fill:#29231d;fill-opacity:1;stroke:none;stroke-width:0.537111;stroke-linecap:square;stroke-linejoin:miter;stroke-miterlimit:4;stroke-dasharray:none;stroke-opacity:1"
       d="m 23.518606,23.523877 v 2.645228 h 2.646518 v -2.645228 h -2.646518 -2.646517 v -2.64523 l 1e-6,10e-7 h -2.646519 v -2.645231 h 2.646519 l -1e-6,2.64523 h 2.646517 v 2.64523 h 2.646518 v -2.64523 h 2.646517 v 0 l 2e-6,-2.64523 h 2.646515 v 2.645231 l -2.646517,-10e-7 v 2.64523 h -2.646517 v 2.645228 h 2.646517 v 2.645228 l 2.646517,10e-7 v 2.645229 h -2.646515 l -2e-6,-2.64523 -2.646517,10e-7 v -2.645229 h -2.646518 v 2.645228 h -2.646517 l 1e-6,2.64523 h -2.646519 v -2.645229 l 2.646518,-10e-7 v -2.645228 h 2.646517 z"
       id="path1722"
       sodipodi:nodetypes="ccccccccccccccccccccccccccccccccccccccccccc" />
    <path
       style="fill:#29231d;fill-opacity:1;stroke:#eb03d4;stroke-width:0.0178224;stroke-linecap:square;stroke-linejoin:miter;stroke-miterlimit:4;stroke-dasharray:none;stroke-opacity:1"
       d="m 23.850641,24.865145 v -1.009397 h 1.009887 1.009887 v 1.009397 1.009395 h -1.009887 -1.009887 z"
       id="path2407" />
    <path
       style="fill:#29231d;fill-opacity:1;stroke:#eb03d4;stroke-width:0.00630213;stroke-linecap:square;stroke-linejoin:miter;stroke-miterlimit:4;stroke-dasharray:none;stroke-opacity:1"
       d="m 23.874961,24.87325 v -0.993193 h 0.993678 0.993676 v 0.993193 0.993194 h -0.993676 -0.993678 z"
       id="path2483" />
    <path
       style="fill:#29231d;fill-opacity:1;stroke:#eb03d4;stroke-width:0.00630213;stroke-linecap:square;stroke-linejoin:miter;stroke-miterlimit:4;stroke-dasharray:none;stroke-opacity:1"
       d="m 23.874961,24.87325 v -0.993193 h 0.993678 0.993676 v 0.993193 0.993194 h -0.993676 -0.993678 z"
       id="path2522" />
    <path
       style="fill:#29231d;fill-opacity:1;stroke:#eb03d4;stroke-width:0.00550412;stroke-linecap:square;stroke-linejoin:miter;stroke-miterlimit:4;stroke-dasharray:none;stroke-opacity:1"
       d="m 23.518606,26.169105 c -0.02661,-0.0107 -0.0341,-0.302091 -0.0341,-1.329466 v -1.315762 h 1.338648 1.338717 l 0.01491,0.06049 c 0.0082,0.03329 0.0115,0.629416 0.0073,1.324729 l -0.0075,1.264245 -1.311908,0.0047 c -0.721514,0.0026 -1.327245,-0.0014 -1.346037,-0.009 z"
       id="path2561" />
    <path
       style="fill:#29231d;fill-opacity:1;stroke:#eb03d4;stroke-width:0.00550412;stroke-linecap:square;stroke-linejoin:miter;stroke-miterlimit:4;stroke-dasharray:none;stroke-opacity:1"
       d="m 31.44673,34.100561 c -0.02661,-0.0107 -0.03411,-0.302091 -0.03411,-1.329466 v -1.315764 h 1.338648 1.338718 l 0.01491,0.06049 c 0.0082,0.0333 0.01151,0.629416 0.0074,1.324732 l -0.0075,1.264243 -1.311908,0.0047 c -0.721516,0.0026 -1.327245,-0.0014 -1.346037,-0.009 z"
       id="path2561-3" />
    <path
       style="fill:#29231d;fill-opacity:1;stroke:#eb03d4;stroke-width:0.00550412;stroke-linecap:square;stroke-linejoin:miter;stroke-miterlimit:4;stroke-dasharray:none;stroke-opacity:1"
       d="m 31.44673,18.229187 c -0.02661,-0.0107 -0.03411,-0.302091 -0.03411,-1.329465 v -1.315764 h 1.338648 1.338718 l 0.01491,0.06049 c 0.0082,0.0333 0.01151,0.629415 0.0074,1.324731 l -0.0075,1.264242 -1.311908,0.0047 c -0.721516,0.0025 -1.327245,-0.0014 -1.346037,-0.009 z"
       id="path2561-6" />
    <path
       style="fill:#29231d;fill-opacity:1;stroke:none;stroke-width:2.64587px;stroke-linecap:butt;stroke-linejoin:miter;stroke-opacity:1"
       d="m 34.104676,20.878648 h -2.646518 v -2.645229 h 2.646518 z"
       id="path4091-56" />
    <path
       style="fill:#29231d;fill-opacity:1;stroke:#eb03d4;stroke-width:0.00550412;stroke-linecap:square;stroke-linejoin:miter;stroke-miterlimit:4;stroke-dasharray:none;stroke-opacity:1"
       d="m 15.579055,34.104792 c -0.02661,-0.0107 -0.0341,-0.302092 -0.0341,-1.329465 v -1.315764 h 1.338648 1.338717 l 0.0149,0.06048 c 0.0082,0.0333 0.01151,0.629417 0.0074,1.324731 l -0.0075,1.264242 -1.311909,0.0047 c -0.721517,0.0026 -1.327244,-0.0014 -1.346037,-0.009 z"
       id="path2561-7" />
    <path
       style="fill:#29231d;fill-opacity:1;stroke:none;stroke-width:2.64587px;stroke-linecap:butt;stroke-linejoin:miter;stroke-opacity:1"
       d="m 18.225571,18.233417 h -2.646516 v -2.645228 h 2.646516 z"
       id="path4091" />
    <path
       style="fill:#29231d;fill-opacity:1;stroke:none;stroke-width:2.64587px;stroke-linecap:butt;stroke-linejoin:miter;stroke-opacity:1"
       d="M 20.87209,18.233417 H 18.225573 V 15.588189 H 20.87209 Z"
       id="path4091-5" />
    <path
       style="fill:#29231d;fill-opacity:1;stroke:none;stroke-width:2.64587px;stroke-linecap:butt;stroke-linejoin:miter;stroke-opacity:1"
       d="m 18.225571,20.878648 h -2.646516 v -2.645229 h 2.646516 z"
       id="path4091-3" />
    <path
       style="fill:#29231d;fill-opacity:1;stroke:none;stroke-width:2.64587px;stroke-linecap:butt;stroke-linejoin:miter;stroke-opacity:1"
       d="m 31.458158,18.233417 h -2.646515 v -2.645228 h 2.646515 z"
       id="path4091-2" />
    <path
       style="fill:#29231d;fill-opacity:1;stroke:none;stroke-width:2.64587px;stroke-linecap:butt;stroke-linejoin:miter;stroke-opacity:1"
       d="m 18.225571,31.459563 h -2.646516 v -2.645229 h 2.646516 z"
       id="path4091-9" />
    <path
       style="fill:#29231d;fill-opacity:1;stroke:none;stroke-width:2.64587px;stroke-linecap:butt;stroke-linejoin:miter;stroke-opacity:1"
       d="m 20.872089,34.104792 h -2.646518 v -2.645229 h 2.646518 z"
       id="path4091-1" />
    <path
       style="fill:#29231d;fill-opacity:1;stroke:none;stroke-width:2.64587px;stroke-linecap:butt;stroke-linejoin:miter;stroke-opacity:1"
       d="m 34.104676,31.459563 h -2.646518 v -2.645229 h 2.646518 z"
       id="path4091-27" />
    <path
       style="fill:#29231d;fill-opacity:1;stroke:none;stroke-width:2.64587px;stroke-linecap:butt;stroke-linejoin:miter;stroke-opacity:1"
       d="m 31.458158,34.104792 h -2.646515 v -2.645229 h 2.646515 z"
       id="path4091-0" />
  </g>
</svg>
