<?xml version="1.0" encoding="UTF-8" standalone="no"?>
<!-- Created with Inkscape (http://www.inkscape.org/) -->

<svg
   width="190"
   height="190"
   viewBox="0 0 50.270832 50.270835"
   version="1.1"
   id="svg5"
   inkscape:version="1.1 (1:1.1+202105261517+ce6663b3b7)"
   sodipodi:docname="close_purple.svg"
   xmlns:inkscape="http://www.inkscape.org/namespaces/inkscape"
   xmlns:sodipodi="http://sodipodi.sourceforge.net/DTD/sodipodi-0.dtd"
   xmlns="http://www.w3.org/2000/svg"
   xmlns:svg="http://www.w3.org/2000/svg">
  <sodipodi:namedview
     id="namedview7"
     pagecolor="#505050"
     bordercolor="#eeeeee"
     borderopacity="1"
     inkscape:pageshadow="0"
     inkscape:pageopacity="0"
     inkscape:pagecheckerboard="0"
     inkscape:document-units="mm"
     showgrid="true"
     units="px"
     width="793.70081px"
     inkscape:zoom="8.0744732"
     inkscape:cx="87.188351"
     inkscape:cy="94.371482"
     inkscape:window-width="1914"
     inkscape:window-height="1011"
     inkscape:window-x="0"
     inkscape:window-y="35"
     inkscape:window-maximized="1"
     inkscape:current-layer="layer1"
     inkscape:snap-grids="true">
    <inkscape:grid
       type="xygrid"
       id="grid1510"
       empspacing="10"
       originx="2.3547917"
       originy="2.3547917" />
  </sodipodi:namedview>
  <defs
     id="defs2" />
  <g
     inkscape:label="Layer 1"
     inkscape:groupmode="layer"
     id="layer1">
    <rect
       style="fill:#eb03d4;fill-opacity:1;stroke:#eb03d4;stroke-width:0.399515;stroke-linecap:round;stroke-linejoin:miter;stroke-opacity:1"
       id="rect870"
       width="0.26458392"
       height="0"
       x="2.2489583"
       y="2.5135417" />
    <rect
       style="fill:#eb03d4;fill-opacity:1;stroke:#eb03d4;stroke-width:0.564999;stroke-linecap:round;stroke-linejoin:miter;stroke-opacity:1"
       id="rect1632"
       width="0"
       height="0.26458314"
       x="2.0902083"
       y="2.3547919" />
    <path
       style="fill:#c83bba;fill-opacity:1;stroke:none;stroke-width:0.537077;stroke-linecap:square;stroke-linejoin:miter;stroke-miterlimit:4;stroke-dasharray:none;stroke-opacity:1"
       d="m 23.520221,23.524096 v 2.645299 h 2.646086 v -2.645299 h -2.646086 -2.646087 v -2.64531 10e-6 h -2.646097 v -2.645308 h 2.646097 v 2.645298 h 2.646087 v 2.64531 h 2.646086 v -2.64531 h 2.646095 v 0 -2.645298 h 2.646086 v 2.645308 l -2.646086,-10e-6 v 2.64531 h -2.646095 v 2.645299 h 2.646095 v 2.645298 l 2.646086,9e-6 v 2.645299 h -2.646086 v -2.645308 l -2.646095,9e-6 v -2.645307 h -2.646086 v 2.645298 h -2.646087 v 2.645308 h -2.646097 v -2.645299 l 2.646097,-9e-6 v -2.645298 h 2.646087 z"
       id="path1722"
       sodipodi:nodetypes="ccccccccccccccccccccccccccccccccccccccccccc" />
    <path
       style="fill:#c83bba;fill-opacity:1;stroke:#eb03d4;stroke-width:0.0178212;stroke-linecap:square;stroke-linejoin:miter;stroke-miterlimit:4;stroke-dasharray:none;stroke-opacity:1"
       d="m 23.852204,24.865396 v -1.009418 h 1.009716 1.009727 v 1.009418 1.009428 H 24.86192 23.852204 Z"
       id="path2407" />
    <path
       style="fill:#c83bba;fill-opacity:1;stroke:#eb03d4;stroke-width:0.00630167;stroke-linecap:square;stroke-linejoin:miter;stroke-miterlimit:4;stroke-dasharray:none;stroke-opacity:1"
       d="m 23.876514,24.873504 v -0.9932 h 0.993497 0.993496 v 0.9932 0.993201 h -0.993496 -0.993497 z"
       id="path2483" />
    <path
       style="fill:#c83bba;fill-opacity:1;stroke:#eb03d4;stroke-width:0.00630167;stroke-linecap:square;stroke-linejoin:miter;stroke-miterlimit:4;stroke-dasharray:none;stroke-opacity:1"
       d="m 23.876514,24.873504 v -0.9932 h 0.993497 0.993496 v 0.9932 0.993201 h -0.993496 -0.993497 z"
       id="path2522" />
    <path
       style="fill:#c83bba;fill-opacity:1;stroke:#c83bba;stroke-width:0.00550375;stroke-linecap:square;stroke-linejoin:miter;stroke-miterlimit:4;stroke-dasharray:none;stroke-opacity:1"
       d="m 23.520221,26.169395 c -0.02702,-0.01096 -0.03401,-0.302143 -0.03401,-1.329504 v -1.315795 h 1.33843 1.3385 l 0.01499,0.06098 c 0.0083,0.033 0.01107,0.629476 0.0074,1.324765 l -0.0076,1.264276 -1.311697,0.0049 c -0.721368,0.0025 -1.327029,-0.0014 -1.34582,-0.0088 z"
       id="path2561" />
    <path
       style="fill:#c83bba;fill-opacity:1;stroke:#eb03d4;stroke-width:0.00550375;stroke-linecap:square;stroke-linejoin:miter;stroke-miterlimit:4;stroke-dasharray:none;stroke-opacity:1"
       d="m 31.447056,34.101071 c -0.02701,-0.01096 -0.03399,-0.302142 -0.03399,-1.329504 v -1.315794 h 1.33844 1.338499 l 0.01499,0.05998 c 0.0081,0.033 0.01108,0.629475 0.0074,1.324767 l -0.0076,1.264273 -1.311696,0.0049 c -0.72137,0.0027 -1.327029,-0.0014 -1.345822,-0.0088 z"
       id="path2561-3" />
    <path
       style="fill:#c83bba;fill-opacity:1;stroke:#eb03d4;stroke-width:0.00550375;stroke-linecap:square;stroke-linejoin:miter;stroke-miterlimit:4;stroke-dasharray:none;stroke-opacity:1"
       d="m 31.447056,18.229259 c -0.02701,-0.01096 -0.03399,-0.302141 -0.03399,-1.329503 v -1.315798 h 1.33844 1.338499 l 0.01499,0.06098 c 0.0081,0.033 0.01108,0.629475 0.0074,1.324764 l -0.0076,1.264277 -1.311696,0.0049 c -0.72137,0.0025 -1.327029,-0.0014 -1.345822,-0.0088 z"
       id="path2561-6" />
    <path
       style="fill:#c83bba;fill-opacity:1;stroke:none;stroke-width:2.64569px;stroke-linecap:butt;stroke-linejoin:miter;stroke-opacity:1"
       d="m 34.104576,20.878796 h -2.646088 v -2.645308 h 2.646088 z"
       id="path4091-56" />
    <path
       style="fill:#c83bba;fill-opacity:1;stroke:#eb03d4;stroke-width:0.00550375;stroke-linecap:square;stroke-linejoin:miter;stroke-miterlimit:4;stroke-dasharray:none;stroke-opacity:1"
       d="m 15.581951,34.105303 c -0.02702,-0.01096 -0.03399,-0.302142 -0.03399,-1.329504 v -1.315798 h 1.33843 1.338499 l 0.01499,0.06098 c 0.0083,0.033 0.01108,0.629474 0.0074,1.324762 l -0.0076,1.264277 -1.311698,0.0049 c -0.721368,0.0025 -1.327026,-0.0014 -1.345819,-0.0088 z"
       id="path2561-7" />
    <path
       style="fill:#c83bba;fill-opacity:1;stroke:none;stroke-width:2.64569px;stroke-linecap:butt;stroke-linejoin:miter;stroke-opacity:1"
       d="m 18.228037,18.233488 h -2.646086 v -2.645299 h 2.646086 z"
       id="path4091" />
    <path
       style="fill:#c83bba;fill-opacity:1;stroke:none;stroke-width:2.64569px;stroke-linecap:butt;stroke-linejoin:miter;stroke-opacity:1"
       d="m 20.874134,18.233488 h -2.646097 v -2.645299 h 2.646097 z"
       id="path4091-5" />
    <path
       style="fill:#c83bba;fill-opacity:1;stroke:none;stroke-width:2.64569px;stroke-linecap:butt;stroke-linejoin:miter;stroke-opacity:1"
       d="m 18.228037,20.878796 h -2.646086 v -2.645308 h 2.646086 z"
       id="path4091-3" />
    <path
       style="fill:#c83bba;fill-opacity:1;stroke:none;stroke-width:2.64569px;stroke-linecap:butt;stroke-linejoin:miter;stroke-opacity:1"
       d="m 31.458488,18.233488 h -2.646086 v -2.645299 h 2.646086 z"
       id="path4091-2" />
    <path
       style="fill:#c83bba;fill-opacity:1;stroke:none;stroke-width:2.64569px;stroke-linecap:butt;stroke-linejoin:miter;stroke-opacity:1"
       d="m 18.228037,31.460001 h -2.646086 v -2.645299 h 2.646086 z"
       id="path4091-9" />
    <path
       style="fill:#c83bba;fill-opacity:1;stroke:none;stroke-width:2.64569px;stroke-linecap:butt;stroke-linejoin:miter;stroke-opacity:1"
       d="m 20.874134,34.105303 h -2.646097 v -2.645302 h 2.646097 z"
       id="path4091-1" />
    <path
       style="fill:#c83bba;fill-opacity:1;stroke:none;stroke-width:2.64569px;stroke-linecap:butt;stroke-linejoin:miter;stroke-opacity:1"
       d="m 34.104576,31.460001 h -2.646088 v -2.645299 h 2.646088 z"
       id="path4091-27" />
    <path
       style="fill:#c83bba;fill-opacity:1;stroke:none;stroke-width:2.64569px;stroke-linecap:butt;stroke-linejoin:miter;stroke-opacity:1"
       d="m 31.458488,34.105303 h -2.646086 v -2.645302 h 2.646086 z"
       id="path4091-0" />
  </g>
</svg>
